<?xml version="1.0" encoding="UTF-8"?>
<svg version="1.1" xmlns="http://www.w3.org/2000/svg" width="500" height="500">
<path d="M0 0 C165 0 330 0 500 0 C500 165 500 330 500 500 C335 500 170 500 0 500 C0 335 0 170 0 0 Z " fill="#000000" transform="translate(0,0)"/>
<path d="M0 0 C2.49416788 -0.03460425 4.98979512 -0.0032562 7.48278809 0.08074951 C8.86325788 0.08413933 10.24374926 0.08222472 11.62420654 0.07543945 C15.35280755 0.07201074 19.07672946 0.14228912 22.8042469 0.22632694 C26.70641128 0.30160391 30.6086962 0.30841147 34.51147461 0.32263184 C41.89292524 0.35985586 49.27223026 0.45821938 56.65273809 0.57882571 C65.05874728 0.71319288 73.46486175 0.7789915 81.87167835 0.83917093 C99.15669864 0.96443339 116.43963335 1.17534998 133.72302246 1.4430542 C135.32784964 4.48734562 136.93187713 7.53205771 138.5357666 10.57684326 C139.21354031 11.86251694 139.21354031 11.86251694 139.90500641 13.17416382 C143.0522577 19.15010962 146.15405384 25.1448269 149.16052246 31.1930542 C149.79948456 32.47564621 149.79948456 32.47564621 150.45135498 33.78414917 C153.07575975 39.07250681 155.65222395 44.37885182 158.168396 49.7194519 C163.11513979 60.19830867 168.27044957 70.56145745 173.50832939 80.8968811 C174.70936585 83.26725152 175.90850166 85.63857407 177.10707092 88.01019287 C182.0524126 97.79499219 182.0524126 97.79499219 187.02185059 107.56756592 C189.08256949 111.60804693 191.1296446 115.65517824 193.1676712 119.70714951 C193.9393463 121.23510543 194.71604013 122.76053783 195.49791718 124.28329849 C196.58041413 126.39293251 197.64527404 128.51060834 198.7064209 130.63104248 C199.02936127 131.25018524 199.35230164 131.869328 199.68502808 132.50723267 C201.04140095 135.25880981 201.74967022 137.10897991 201.50335693 140.19692993 C200.44779371 143.23527599 198.92969328 145.71238088 197.22302246 148.4430542 C196.40073041 149.77777417 195.58061734 151.11383778 194.76208496 152.4508667 C194.28932129 153.22204834 193.81655762 153.99322998 193.32946777 154.78778076 C190.39448412 159.63897867 187.550687 164.54405689 184.69338989 169.44125366 C178.87065195 179.41792211 172.9971562 189.3610288 167.03552246 199.2555542 C161.57174068 208.32563347 156.19677043 217.44315271 150.87316895 226.59613037 C146.80061453 233.59813733 142.71123559 240.58984385 138.59802246 247.5680542 C138.06547852 248.47450684 137.53293457 249.38095947 136.98425293 250.31488037 C134.34816355 254.78081064 131.65464351 259.16485123 128.72302246 263.4430542 C118.71976989 263.00260997 109.14906826 261.37140544 99.34170532 259.46380615 C94.60489827 258.54380119 89.86318822 257.64979252 85.12145996 256.7555542 C83.61879326 256.47173889 83.61879326 256.47173889 82.08576965 256.18218994 C71.43277108 254.18124259 60.75374099 252.33842723 50.07025146 250.50857544 C46.78908503 249.94366756 43.50954984 249.37007115 40.23034668 248.79388428 C30.49740797 247.08899329 20.76828184 245.42245437 10.99134827 243.98757935 C6.88756563 243.37961301 2.79064817 242.73156473 -1.30606079 242.07781982 C-3.22488567 241.7827368 -5.14680878 241.50706002 -7.07138062 241.25213623 C-21.67436316 239.31093674 -21.67436316 239.31093674 -25.33898926 235.03973389 C-26.68551197 231.87325596 -27.47565199 228.78754268 -28.27697754 225.4430542 C-29.22252983 223.04974549 -30.20936594 220.67246364 -31.23010254 218.3102417 C-31.76569112 217.02031477 -32.29857772 215.72926316 -32.82897949 214.43719482 C-33.10440582 213.76921875 -33.37983215 213.10124268 -33.66360474 212.4130249 C-40.07222373 196.86253616 -46.42272324 181.28904752 -52.70715332 165.68792725 C-56.08521264 157.30563397 -59.47914572 148.93124643 -62.94017029 140.58279419 C-64.54777382 136.70292693 -66.14600708 132.81923083 -67.74362183 128.9352417 C-68.51094463 127.07734896 -69.28288243 125.22135502 -70.05960083 123.36737061 C-71.13600311 120.79701811 -72.19636594 118.22058114 -73.25354004 115.64227295 C-73.57655594 114.88278854 -73.89957184 114.12330414 -74.2323761 113.34080505 C-75.85622306 109.33216587 -76.81701428 106.58127007 -75.27697754 102.4430542 C-73.75850887 99.97988937 -72.21230562 97.66079422 -70.52697754 95.3180542 C-69.5186649 93.88481218 -68.51087394 92.45120304 -67.50354004 91.01727295 C-66.97405762 90.26881104 -66.4445752 89.52034912 -65.89904785 88.74920654 C-63.19395404 84.90328298 -60.55066765 81.01543327 -57.90197754 77.1305542 C-56.80323724 75.52363426 -55.70427705 73.91686466 -54.60510254 72.3102417 C-53.49570473 70.68786147 -52.38632978 69.06546559 -51.27697754 67.4430542 C-45.11898422 58.43707921 -38.96102479 49.43116735 -32.77697754 40.4430542 C-28.70957233 34.52974746 -24.64632775 28.61360822 -20.58947754 22.6930542 C-19.82377441 21.57737061 -19.82377441 21.57737061 -19.04260254 20.43914795 C-18.5385791 19.70309326 -18.03455566 18.96703857 -17.51525879 18.2086792 C-17.01837807 17.50448475 -16.52149734 16.8002903 -16.00955963 16.07475662 C-14.20500055 13.43153708 -14.20500055 13.43153708 -12.6944809 10.40055466 C-9.36937501 4.4108883 -7.09497742 0.75929674 0 0 Z " fill="#ED6000" transform="translate(193.2769775390625,54.55694580078125)"/>
<path d="M0 0 C0.33 0 0.66 0 1 0 C1 76.89 1 153.78 1 233 C-74.9 233 -150.8 233 -229 233 C-229 232.67 -229 232.34 -229 232 C-228.21052979 231.89977539 -227.42105957 231.79955078 -226.60766602 231.69628906 C-182.69649692 226.05755409 -141.35879304 213.10041929 -105 187 C-103.9790625 186.27296875 -102.958125 185.5459375 -101.90625 184.796875 C-83.32790485 171.20534881 -65.94980361 155.31693805 -52.28271484 136.73583984 C-50.95498091 134.93907771 -49.59911395 133.16632496 -48.23828125 131.39453125 C-19.49114919 93.59413064 -3.2921639 47.17130365 0 0 Z " fill="#FEFEFE" transform="translate(499,267)"/>
<path d="M0 0 C75.9 0 151.8 0 230 0 C230 76.89 230 153.78 230 233 C229.67 233 229.34 233 229 233 C228.87044922 231.14375 228.87044922 231.14375 228.73828125 229.25 C224.2119222 170.99450486 199.00692808 118.13258316 159 76 C158.49452637 75.46584473 157.98905273 74.93168945 157.46826172 74.38134766 C150.09203605 66.6417158 142.36597799 59.74397012 133.80029297 53.34716797 C131.98195631 51.98649782 130.1802405 50.60572853 128.37890625 49.22265625 C90.72549706 20.60666676 46.47356633 6.29090985 0 1 C0 0.67 0 0.34 0 0 Z " fill="#FEFEFE" transform="translate(270,0)"/>
<path d="M0 0 C0.33 0 0.66 0 1 0 C1.07476562 1.11890625 1.14953125 2.2378125 1.2265625 3.390625 C6.32556504 69.14607475 38.4542064 127.8182433 86.89453125 171.6171875 C89.53880235 173.83496326 92.23763 175.93094494 95 178 C95.62922363 178.47856445 96.25844727 178.95712891 96.90673828 179.45019531 C136.1201708 209.15927783 180.45193721 225.25204146 229 231 C229 231.33 229 231.66 229 232 C153.43 232 77.86 232 0 232 C0 155.44 0 78.88 0 0 Z " fill="#FEFEFE" transform="translate(0,268)"/>
<path d="M0 0 C75.57 0 151.14 0 229 0 C229 0.33 229 0.66 229 1 C227.86292603 1.13462646 227.86292603 1.13462646 226.70288086 1.27197266 C160.94193957 9.23488238 97.98446234 39.28493175 56.234375 92.08203125 C55.49703125 93.04496094 54.7596875 94.00789063 54 95 C53.58041016 95.54317871 53.16082031 96.08635742 52.72851562 96.64599609 C41.86474269 110.78079555 32.54043999 125.84497199 24.95166016 141.98144531 C24.31407166 143.33382645 23.6678026 144.68214705 23.01318359 146.02636719 C9.81059477 173.17825391 3.09377305 202.99966979 1 233 C0.67 233 0.34 233 0 233 C0 156.11 0 79.22 0 0 Z " fill="#FEFEFE" transform="translate(0,0)"/>
<path d="M0 0 C7.3777709 3.90993563 14.48847088 8.094031 21.5 12.625 C23.43992697 13.868766 25.38003415 15.11225097 27.3203125 16.35546875 C28.2784082 16.97083496 29.23650391 17.58620117 30.22363281 18.22021484 C34.26327585 20.8098207 38.31712823 23.37658039 42.375 25.9375 C43.13723877 26.41872314 43.89947754 26.89994629 44.68481445 27.39575195 C55.10175344 33.96471099 65.55288866 40.47918735 76 47 C83.04789136 51.39910877 90.09380648 55.80132417 97.13574219 60.20996094 C99.98592517 61.99120383 102.84035574 63.76548374 105.6953125 65.5390625 C107.44283146 66.63001113 109.19023358 67.72114695 110.9375 68.8125 C112.14563354 69.55922974 112.14563354 69.55922974 113.37817383 70.32104492 C114.1080249 70.77842041 114.83787598 71.2357959 115.58984375 71.70703125 C116.22784912 72.1038208 116.86585449 72.50061035 117.52319336 72.90942383 C119 74 119 74 120 76 C114.1563949 78.93477474 108.31103597 81.86603565 102.46459961 84.79516602 C100.48733221 85.7862715 98.5104279 86.77810175 96.53393555 87.77075195 C86.16898383 92.9756971 75.78640136 98.1276292 65.3046875 103.09375 C55.30568214 107.83874209 45.40275198 112.76566268 35.51171875 117.73046875 C34.74751806 118.11390757 33.98331738 118.49734638 33.19595909 118.89240456 C26.0597749 122.4736635 18.92627189 126.06024476 11.79467773 129.65063477 C7.84710135 131.63776482 3.89761469 133.62105296 -0.05309105 135.60195351 C-1.54543776 136.35122759 -3.03702409 137.10201817 -4.52782631 137.85436058 C-6.58748277 138.89373429 -8.64951052 139.92824824 -10.7121582 140.96166992 C-11.88188675 141.55026291 -13.0516153 142.1388559 -14.25679016 142.74528503 C-17 144 -17 144 -19 144 C-18.41465998 133.62684442 -17.20968064 123.42221252 -15.7421875 113.14453125 C-15.51539251 111.5306391 -15.28903968 109.91668477 -15.06309509 108.30267334 C-14.58531947 104.89582611 -14.10472579 101.48939417 -13.62173462 98.08328247 C-12.86910942 92.77548608 -12.12275298 87.4668209 -11.37768555 82.15795898 C-10.6294477 76.82793135 -9.88102406 71.49793131 -9.13047791 66.16822815 C-6.99083393 50.97087466 -4.89172698 35.76824119 -2.8125 20.5625 C-2.51874669 18.41706956 -2.22496521 16.27164298 -1.93115234 14.1262207 C-1.28654252 9.41760207 -0.64289379 4.70885323 0 0 Z " fill="#020000" transform="translate(212,110)"/>
<path d="M0 0 C0.14441334 6.89313801 -0.25256048 13.55999974 -1.08569336 20.39990234 C-1.20112991 21.38670486 -1.31656647 22.37350739 -1.4355011 23.39021301 C-1.81493023 26.62277761 -2.20241101 29.8543233 -2.58984375 33.0859375 C-2.85705395 35.35211673 -3.1236918 37.61836351 -3.38978577 39.88467407 C-4.08971681 45.83506714 -4.79620463 51.78466199 -5.50445557 57.73406982 C-6.63593839 67.24729669 -7.75779854 76.76166129 -8.87893867 86.2761116 C-9.2694937 89.58199027 -9.66307189 92.887498 -10.05711365 96.19296265 C-11.76898415 110.57272268 -11.76898415 110.57272268 -13 125 C-17.95927178 123.45983832 -22.59993706 121.47029104 -27.31640625 119.32421875 C-28.11646591 118.96306473 -28.91652557 118.60191071 -29.74082947 118.22981262 C-32.34925998 117.0516916 -34.95585748 115.86957102 -37.5625 114.6875 C-39.38657156 113.86295555 -41.21079175 113.03873985 -43.03515625 112.21484375 C-46.68161925 110.56792488 -50.32756024 108.91985904 -53.97314453 107.27099609 C-60.47512948 104.33173426 -66.98682834 101.41438601 -73.5 98.5 C-75.77742275 97.47934292 -78.05476408 96.45850416 -80.33203125 95.4375 C-84.54183015 93.55005471 -88.7518783 91.66317082 -92.96240234 89.77734375 C-97.47406812 87.75636847 -101.98462971 85.7329434 -106.49462891 83.70825195 C-108.26691035 82.91305514 -110.03952541 82.11860135 -111.8125 81.32495117 C-129.78824489 73.27731157 -129.78824489 73.27731157 -138 69 C-135.00009429 66.60950305 -131.94884238 64.84877378 -128.52120972 63.13362122 C-126.85129471 62.29443398 -126.85129471 62.29443398 -125.14764404 61.43829346 C-123.91861923 60.82572515 -122.6895529 60.21324013 -121.46044922 59.60083008 C-120.16246208 58.95048093 -118.86464528 58.29979171 -117.56698608 57.64878845 C-114.04840594 55.88494397 -110.52731836 54.1261613 -107.00564718 52.36849809 C-103.32183124 50.52912248 -99.63996928 48.68584289 -95.95779419 46.84318542 C-89.77717302 43.75105636 -83.59487397 40.6623022 -77.41162109 37.57543945 C-70.25642336 34.00328933 -63.10413315 30.42536972 -55.95331562 26.84446031 C-49.81629544 23.771418 -43.67772752 20.70148492 -37.53784573 17.63416404 C-33.86941835 15.80151165 -30.20154444 13.96777379 -26.53506088 12.13123512 C-23.09118077 10.40641455 -19.64537972 8.68549486 -16.19803238 6.96761513 C-14.93070054 6.33527554 -13.66405354 5.70156132 -12.39813232 5.06640244 C-10.67554042 4.20239025 -8.95025622 3.34375186 -7.224823 2.48542786 C-6.25844847 2.00261762 -5.29207394 1.51980738 -4.29641533 1.02236652 C-2 0 -2 0 0 0 Z " fill="#010000" transform="translate(333,189)"/>
<path d="M0 0 C0.04345047 0.6135434 0.08690094 1.22708679 0.13166809 1.85922241 C2.63913698 37.85470017 2.63913698 37.85470017 5.625 73.8125 C5.68544495 74.4773642 5.74588989 75.14222839 5.8081665 75.82723999 C5.98527216 77.77285843 6.16255616 79.71846063 6.33984375 81.6640625 C7.00783542 89.00127517 7.61431273 96.34230722 8.1875 103.6875 C8.31342529 105.26591675 8.31342529 105.26591675 8.44189453 106.8762207 C8.82984422 111.93506785 9.09224775 116.92637395 9 122 C1.73026084 118.14458582 -5.28089162 114.0328071 -12.1875 109.5625 C-14.12054215 108.32205667 -16.05415621 107.08250419 -17.98828125 105.84375 C-19.47255615 104.89242187 -19.47255615 104.89242187 -20.98681641 103.921875 C-25.92920683 100.7695093 -30.90107915 97.66479503 -35.875 94.5625 C-36.86806152 93.9427832 -37.86112305 93.32306641 -38.88427734 92.68457031 C-40.90460413 91.42418894 -42.92511253 90.16409865 -44.94580078 88.90429688 C-59.5299708 79.81104938 -74.09951926 70.69576394 -88.62207031 61.50439453 C-92.97549302 58.75020657 -97.33171185 56.0004448 -101.6875 53.25 C-103.295584 52.23439255 -104.903658 51.21876927 -106.51171875 50.203125 C-107.18678467 49.77676758 -107.86185059 49.35041016 -108.55737305 48.91113281 C-109.03343994 48.61045898 -109.50950684 48.30978516 -110 48 C-106.84352614 45.41003614 -103.67638057 43.8553904 -99.921875 42.26953125 C-99.30283798 42.00604889 -98.68380096 41.74256653 -98.04600525 41.47109985 C-95.9494046 40.57993862 -93.84967293 39.69639557 -91.75 38.8125 C-90.24297909 38.17323496 -88.73623332 37.53332099 -87.22973633 36.89282227 C-84.72171149 35.82667178 -82.21347197 34.76104751 -79.704422 33.6973114 C-72.03323158 30.44444331 -64.37278683 27.16672781 -56.71484375 23.8828125 C-56.09732113 23.61801023 -55.47979851 23.35320797 -54.84356308 23.08038139 C-51.70645253 21.73505671 -48.56944928 20.38948203 -45.43249512 19.04379272 C-41.7460051 17.46245273 -38.05908757 15.88211229 -34.37207031 14.30200195 C-33.20368622 13.8012767 -32.03530212 13.30055145 -30.83151245 12.78465271 C-28.56786257 11.81470183 -26.30413209 10.84493903 -24.04031372 9.87538147 C-19.44462562 7.90682362 -14.84951656 5.93711132 -10.26025391 3.95361328 C-9.59008743 3.66446548 -8.91992096 3.37531769 -8.22944641 3.07740784 C-6.55967287 2.35645857 -4.89075105 1.63353745 -3.22192383 0.91040039 C-1 0 -1 0 0 0 Z " fill="#020000" transform="translate(325,60)"/>
<path d="M0 0 C-0.56386037 9.32071167 -1.49011533 18.51962876 -2.78515625 27.765625 C-2.96194916 29.05502487 -3.13874207 30.34442474 -3.32089233 31.67289734 C-3.79740441 35.14737626 -4.27943722 38.62106626 -4.76288986 42.09458542 C-5.26841993 45.73140119 -5.76988406 49.36877766 -6.27172852 53.00610352 C-6.89178742 57.49869195 -7.5123551 61.99120747 -8.13517761 66.4834137 C-9.45464554 76.00615107 -10.74965766 85.53189891 -12.02613258 95.06048965 C-12.65437776 99.74316021 -13.28839913 104.42505323 -13.92160034 109.10705566 C-14.26476366 111.65496974 -14.60537207 114.20322925 -14.94338989 116.75183105 C-15.4121823 120.28217058 -15.89050091 123.81109428 -16.37109375 127.33984375 C-16.50720062 128.38355637 -16.6433075 129.42726898 -16.78353882 130.50260925 C-16.98047836 131.92818901 -16.98047836 131.92818901 -17.18139648 133.38256836 C-17.29192856 134.20720078 -17.40246063 135.03183319 -17.51634216 135.88145447 C-18 138 -18 138 -20 141 C-26.89289468 132.24868292 -33.75930992 123.49785122 -40.17822266 114.39086914 C-43.63895503 109.48409977 -47.18299927 104.6424977 -50.75 99.8125 C-51.34224365 99.01021973 -51.9344873 98.20793945 -52.54467773 97.38134766 C-54.36236974 94.92034413 -56.1810622 92.46008286 -58 90 C-65.1135923 80.37630081 -72.21511737 70.74395568 -79.25 61.0625 C-80.07383179 59.93509399 -80.07383179 59.93509399 -80.91430664 58.78491211 C-81.4221167 58.08374268 -81.92992676 57.38257324 -82.453125 56.66015625 C-82.89817383 56.04793213 -83.34322266 55.43570801 -83.80175781 54.80493164 C-85.04390083 52.93387147 -86.03768476 51.02717686 -87 49 C-86.36835937 48.64921387 -85.73671875 48.29842773 -85.0859375 47.93701172 C-73.32572102 41.39814495 -61.6034445 34.8138758 -50 28 C-40.6410609 22.50445204 -31.21028388 17.15108349 -21.72265625 11.88085938 C-15.53274759 8.43880736 -9.40233529 4.91214132 -3.30957031 1.30053711 C-1 0 -1 0 0 0 Z " fill="#020000" transform="translate(208,111)"/>
<path d="M0 0 C6.0134915 -0.14122463 11.66896437 0.37460089 17.609375 1.27734375 C18.94322235 1.47355064 18.94322235 1.47355064 20.30401611 1.67372131 C22.17003728 1.94929921 24.03565606 2.22761451 25.90087891 2.50854492 C28.75466602 2.9382025 31.60959617 3.35946519 34.46484375 3.77929688 C36.28392627 4.0489933 38.10293926 4.31915918 39.921875 4.58984375 C41.19850006 4.77896584 41.19850006 4.77896584 42.50091553 4.97190857 C43.2956427 5.09195755 44.09036987 5.21200653 44.90917969 5.33569336 C45.6045282 5.4400621 46.29987671 5.54443085 47.01629639 5.65196228 C49.0417305 6.00732155 51.01174649 6.47740427 53 7 C51.46887017 11.13482777 49.48385441 14.92486714 47.3125 18.75 C46.92731201 19.43191406 46.54212402 20.11382812 46.14526367 20.81640625 C41.84459688 28.3679903 37.34426152 35.79990095 32.8581543 43.2421875 C28.55916359 50.38037542 24.31465791 57.54712033 20.125 64.75 C19.56385498 65.71462158 19.00270996 66.67924316 18.42456055 67.6730957 C17.25033842 69.69229567 16.07627022 71.71158516 14.90234375 73.73095703 C11.68625657 79.25757501 8.46097429 84.77879026 5.230896 90.29724121 C4.50916233 91.53086844 3.7879858 92.76482184 3.06744385 93.99914551 C-0.71871404 100.48477462 -4.54026396 106.94844281 -8.4453125 113.36328125 C-9.10289551 114.44520752 -9.76047852 115.52713379 -10.43798828 116.6418457 C-10.95345215 117.42003662 -11.46891602 118.19822754 -12 119 C-12.33 119 -12.66 119 -13 119 C-12.40435822 105.77651839 -11.06412303 92.69518056 -9.53125 79.55078125 C-9.28808541 77.43715052 -9.04529463 75.32347675 -8.80285645 73.20976257 C-8.29802354 68.81667104 -7.79016269 64.42394491 -7.27978516 60.03149414 C-6.62652542 54.4089954 -5.97877227 48.78587991 -5.33298492 43.1625185 C-4.71353226 37.7708798 -4.09118445 32.37957637 -3.46875 26.98828125 C-3.29231712 25.45640388 -3.29231712 25.45640388 -3.11231995 23.89357948 C-2.77896278 21.00348944 -2.44352222 18.1136491 -2.10742188 15.22387695 C-2.00973007 14.37448547 -1.91203827 13.52509399 -1.81138611 12.64996338 C-1.31590277 8.40988097 -0.74745699 4.20502802 0 0 Z " fill="#050200" transform="translate(337,188)"/>
<path d="M0 0 C2.22084706 2.05472226 3.65739468 3.94280547 5.00195312 6.64746094 C5.54897888 7.7370108 5.54897888 7.7370108 6.10705566 8.84857178 C6.49453979 9.63588684 6.88202393 10.4232019 7.28125 11.234375 C7.69483765 12.06342346 8.10842529 12.89247192 8.5345459 13.74664307 C9.4148326 15.51394598 10.29223708 17.28268698 11.16699219 19.05273438 C12.46221544 21.67354508 13.76532004 24.29029258 15.0703125 26.90625 C19.55486788 35.91752192 23.95016273 44.96705979 28.26953125 54.05859375 C32.40461443 62.75372679 36.65757887 71.38507793 40.98046875 79.98828125 C41.5709903 81.16383575 42.16151184 82.33939026 42.76992798 83.55056763 C45.1996955 88.38237664 47.63247645 93.21265423 50.06860352 98.04125977 C51.29571968 100.47395348 52.52072671 102.90768781 53.7434845 105.34257507 C54.88077337 107.60683244 56.02134598 109.86944416 57.16557312 112.13020325 C57.67062881 113.13693588 58.17568451 114.14366852 58.69604492 115.1809082 C59.14251877 116.06639847 59.58899261 116.95188873 60.04899597 117.86421204 C61 120 61 120 61 122 C49.82399888 121.33891309 38.81185365 119.59458134 27.75 117.9375 C25.82947848 117.65264804 23.90890591 117.36814009 21.98828125 117.08398438 C17.32492285 116.39328677 12.66227968 115.69794034 8 115 C7.91452408 113.85709503 7.82904816 112.71419006 7.74098206 111.53665161 C6.9332065 100.73801633 6.12411486 89.93948035 5.31375217 79.14103889 C4.89723243 73.59016859 4.48116788 68.03926497 4.06616211 62.48828125 C3.66524745 57.12600513 3.26311291 51.76382174 2.86015129 46.40169907 C2.70703091 44.36133927 2.55434165 42.32094706 2.40210152 40.28052139 C2.18792858 37.411047 1.97218872 34.54169422 1.75610352 31.67236328 C1.69424362 30.83869736 1.63238373 30.00503143 1.56864929 29.14610291 C1.19079302 24.15432803 0.73036154 19.1773182 0.20170498 14.19917107 C-0.06862472 11.25179096 -0.09689786 8.33321612 -0.0625 5.375 C-0.05347656 4.35148437 -0.04445313 3.32796875 -0.03515625 2.2734375 C-0.02355469 1.52320312 -0.01195312 0.77296875 0 0 Z " fill="#040100" transform="translate(329,69)"/>
<path d="M0 0 C41.58 0 83.16 0 126 0 C122.88807563 2.33394328 120.77982434 3.67791566 117.31884766 5.13452148 C116.38492188 5.5309082 115.45099609 5.92729492 114.48876953 6.33569336 C113.47411621 6.75987549 112.45946289 7.18405762 111.4140625 7.62109375 C110.34446289 8.07371582 109.27486328 8.52633789 108.17285156 8.99267578 C105.86290034 9.96968188 103.55192692 10.94427393 101.24005127 11.91671753 C95.75713923 14.22327306 90.28027057 16.54407795 84.80360031 18.86540413 C83.55547721 19.39435372 82.30726954 19.92310383 81.05897903 20.45165825 C67.87908345 26.03263696 54.74512894 31.71754094 41.625 37.4375 C40.62011536 37.87536835 39.61523071 38.31323669 38.57989502 38.76437378 C33.05201517 41.17339694 27.52536254 43.58520896 22 46 C18.69785677 42.94506073 17.12832442 39.38166285 15.3125 35.33203125 C14.96872314 34.57838791 14.62494629 33.82474457 14.27075195 33.04826355 C13.54484234 31.45345619 12.82217923 29.85716767 12.10253906 28.25952148 C11.01045022 25.83569367 9.90851283 23.41654888 8.8046875 20.99804688 C8.09836984 19.4429755 7.39262256 17.88764489 6.6875 16.33203125 C6.36241455 15.61715042 6.0373291 14.90226959 5.70239258 14.16572571 C5.39197021 13.47528671 5.08154785 12.78484772 4.76171875 12.07348633 C4.49319092 11.47852859 4.22466309 10.88357086 3.94799805 10.27058411 C2.53488456 6.88598534 1.28783341 3.43422242 0 0 Z " fill="#050200" transform="translate(191,59)"/>
<path d="M0 0 C4.96207412 4.31939585 9.8272398 8.72472873 14.59375 13.2578125 C15.44356445 14.06460449 15.44356445 14.06460449 16.31054688 14.88769531 C24.35110341 22.57731043 31.62048922 30.54678355 38.26269531 39.47363281 C39.6151754 41.28653165 40.98968443 43.08106493 42.3671875 44.875 C81.13340437 95.8945945 97.38361593 162.66383468 89.40234375 226.0234375 C80.08194814 289.74375173 47.46685574 350.95801031 -4.40625 390.2578125 C-5.03982422 390.74072754 -5.67339844 391.22364258 -6.32617188 391.72119141 C-46.65950411 422.27190508 -97.12880773 442.98537064 -148.234375 443.49609375 C-149.0532016 443.5058876 -149.8720282 443.51568146 -150.71566772 443.52577209 C-221.26962519 444.19437421 -285.69602256 420.16020042 -336.40356445 370.49291992 C-343.52383956 363.42528469 -350.4044625 356.31705113 -356.40625 348.2578125 C-356.89399902 347.60876953 -357.38174805 346.95972656 -357.88427734 346.29101562 C-397.94156427 292.78515262 -416.50525796 226.83092023 -408.15234375 160.1953125 C-400.43057366 106.56529081 -376.87958265 58.20449471 -339.40625 19.2578125 C-338.85565918 18.67999023 -338.30506836 18.10216797 -337.73779297 17.50683594 C-330.05810094 9.47856525 -322.1050348 2.22196277 -313.19042969 -4.41113281 C-311.37753085 -5.7636129 -309.58299757 -7.13812193 -307.7890625 -8.515625 C-277.8974992 -31.23941484 -241.48480832 -47.06032815 -204.45019531 -53.38623047 C-203.05638975 -53.62896441 -201.66509119 -53.88644331 -200.27636719 -54.15673828 C-130.52045096 -67.56668577 -53.94408883 -45.33253248 0 0 Z M-346.93359375 29.1328125 C-349.14299606 31.80428665 -351.28305446 34.51745408 -353.40625 37.2578125 C-354.20417969 38.25039062 -355.00210938 39.24296875 -355.82421875 40.265625 C-370.1896349 58.2755797 -381.82574608 78.90538307 -390.40625 100.2578125 C-390.83284912 101.29349365 -390.83284912 101.29349365 -391.26806641 102.35009766 C-395.38115361 112.42085993 -398.47341009 122.6555843 -401.15625 133.1953125 C-401.43791016 134.28875977 -401.71957031 135.38220703 -402.00976562 136.50878906 C-406.39091574 154.38367242 -407.96167882 171.82850651 -407.84375 190.1953125 C-407.84037628 191.22006683 -407.83700256 192.24482117 -407.83352661 193.30062866 C-407.54622578 253.78127287 -386.90734518 311.94270814 -346.40625 357.2578125 C-345.70387207 358.04478516 -345.70387207 358.04478516 -344.98730469 358.84765625 C-336.05133866 368.81305531 -326.87947547 377.89398314 -316.40625 386.2578125 C-315.61476563 386.91652344 -314.82328125 387.57523437 -314.0078125 388.25390625 C-271.27249512 423.5353892 -216.91590183 441.4481439 -161.8972168 441.44311523 C-159.24055774 441.44529461 -156.5843201 441.46350067 -153.92773438 441.48242188 C-95.88571395 441.67315261 -38.58903103 418.85310979 4.59375 380.2578125 C5.38072266 379.55543457 5.38072266 379.55543457 6.18359375 378.83886719 C16.14963222 369.9023278 25.22602842 360.72857207 33.59375 350.2578125 C34.22925781 349.50113281 34.86476563 348.74445313 35.51953125 347.96484375 C78.50887446 296.2530251 93.41394336 228.50211526 88.16796875 162.6015625 C87.61003154 157.41898715 86.69839495 152.34966468 85.59375 147.2578125 C85.36800293 146.195625 85.14225586 145.1334375 84.90966797 144.0390625 C76.76667232 106.74193734 61.60317552 71.16899625 37.59375 41.2578125 C36.89121094 40.36449219 36.18867188 39.47117187 35.46484375 38.55078125 C29.52621893 31.12484431 23.13157804 24.15390977 16.59375 17.2578125 C15.8821875 16.50371094 15.170625 15.74960938 14.4375 14.97265625 C9.21020606 9.58468729 3.45164243 4.93915511 -2.40625 0.2578125 C-3.16292969 -0.37769531 -3.91960937 -1.01320312 -4.69921875 -1.66796875 C-26.26813848 -19.59875744 -51.22530808 -32.09903749 -77.40625 -41.7421875 C-78.53764404 -42.16153564 -78.53764404 -42.16153564 -79.69189453 -42.58935547 C-89.39805182 -46.13902251 -99.27022758 -48.78914903 -109.40625 -50.7421875 C-110.35016602 -50.92700684 -111.29408203 -51.11182617 -112.26660156 -51.30224609 C-128.63649291 -54.36220837 -144.73003158 -55.13895576 -161.34375 -55.1796875 C-162.7425238 -55.18881165 -162.7425238 -55.18881165 -164.16955566 -55.19812012 C-233.41266616 -55.49380938 -301.36875582 -22.69983158 -346.93359375 29.1328125 Z " fill="#D76314" transform="translate(409.40625,56.7421875)"/>
<path d="M0 0 C0.66 0 1.32 0 2 0 C4.38602494 5.17708733 6.77041839 10.35492173 9.15332031 15.53344727 C9.96374726 17.29406904 10.77461526 19.05448787 11.5859375 20.81469727 C12.75377276 23.34858493 13.92000643 25.88320444 15.0859375 28.41796875 C15.62823502 29.59325386 15.62823502 29.59325386 16.18148804 30.7922821 C16.84517625 32.23668464 17.50419768 33.68324538 18.15740967 35.13241577 C18.86015968 36.69004678 19.58138518 38.23932557 20.30712891 39.78637695 C21.12987962 42.41494664 21.21725921 43.52285005 20 46 C17.97241211 47.51708984 17.97241211 47.51708984 15.27734375 48.9609375 C14.27638672 49.5075 13.27542969 50.0540625 12.24414062 50.6171875 C11.15294922 51.19726562 10.06175781 51.77734375 8.9375 52.375 C6.63301326 53.63079358 4.32965421 54.88865847 2.02734375 56.1484375 C1.4387558 56.46866882 0.85016785 56.78890015 0.2437439 57.11883545 C-5.57633814 60.29164708 -11.29081208 63.63307966 -17 67 C-25.45229105 71.96144782 -33.95103733 76.83194202 -42.5 81.625 C-43.53253906 82.20507812 -44.56507813 82.78515625 -45.62890625 83.3828125 C-51.02399406 86.3966692 -56.4462382 89.28923531 -62 92 C-60.55297621 87.83409468 -58.49737534 84.72103965 -55.875 81.1875 C-50.29165053 73.55720448 -45.08464027 65.6876386 -39.88623047 57.79174805 C-36.07101019 52.02035854 -32.12606381 46.38238746 -28.03125 40.80639648 C-24.42595136 35.82527775 -21.00378143 30.72013347 -17.5625 25.625 C-16.07311326 23.43085612 -14.58353173 21.23684445 -13.09375 19.04296875 C-10.71127723 15.52969252 -8.33511153 12.01242286 -5.96875 8.48828125 C-5.16687843 7.30454402 -4.36481927 6.12093383 -3.5625 4.9375 C-2.90378906 3.95652344 -2.24507812 2.97554688 -1.56640625 1.96484375 C-1.04949219 1.31644531 -0.53257812 0.66804688 0 0 Z " fill="#050200" transform="translate(187,62)"/>
<path d="M0 0 C19.23320127 8.22166516 38.26462216 16.88076834 57.31311035 25.51908875 C68.48678466 30.58403393 79.68518597 35.59337429 90.88330078 40.60400391 C98.59407933 44.05772721 106.29675864 47.52950593 114 51 C110.30100327 52.23299891 108.22073662 51.71815673 104.37890625 51.06640625 C103.70489777 50.95377945 103.03088928 50.84115265 102.3364563 50.72511292 C100.07712531 50.34509955 97.81986762 49.95399582 95.5625 49.5625 C93.94838207 49.28790458 92.33420421 49.01366127 90.7199707 48.73974609 C76.53254133 46.31807679 62.37530514 43.72786289 48.22167969 41.11694336 C38.09073379 39.25385331 27.95076358 37.46916079 17.7890625 35.78125 C16.70009171 35.59964325 15.61112091 35.4180365 14.489151 35.23092651 C9.18232186 34.34693857 3.87413916 33.47291696 -1.43676758 32.61376953 C-3.34722316 32.29753374 -5.25762644 31.9809818 -7.16796875 31.6640625 C-8.05112762 31.52480347 -8.9342865 31.38554443 -9.84420776 31.24206543 C-11.9085592 30.8952413 -13.95722074 30.45704127 -16 30 C-16.33 29.34 -16.66 28.68 -17 28 C-15.66064453 25.31030273 -15.66064453 25.31030273 -13.6328125 21.93359375 C-13.27863251 21.33950211 -12.92445251 20.74541046 -12.55953979 20.13331604 C-11.42216374 18.23011886 -10.27356945 16.33395841 -9.125 14.4375 C-8.35736875 13.15471799 -7.59043252 11.87151981 -6.82421875 10.58789062 C-1.20165686 1.20165686 -1.20165686 1.20165686 0 0 Z " fill="#060200" transform="translate(191,260)"/>
<path d="M0 0 C3.91871918 3.59059676 6.81927628 7.74916265 9.875 12.0625 C11.03955133 13.69068615 12.20494346 15.31827119 13.37109375 16.9453125 C13.97034668 17.78223633 14.56959961 18.61916016 15.18701172 19.48144531 C18.07253004 23.48992996 21.00291018 27.4648661 23.9375 31.4375 C24.51806152 32.22390869 25.09862305 33.01031738 25.69677734 33.82055664 C26.87556428 35.41685096 28.0546008 37.012961 29.23388672 38.60888672 C32.15956104 42.56991165 35.07949007 46.53516671 38 50.5 C39.15232158 52.06381842 40.3046654 53.62762045 41.45703125 55.19140625 C43.93406171 58.55304093 46.41053289 61.91508689 48.88671875 65.27734375 C49.52287109 66.14101562 50.15902344 67.0046875 50.81445312 67.89453125 C52.03334382 69.54937555 53.25210088 71.20431828 54.47070312 72.859375 C55.02048828 73.60574219 55.57027344 74.35210937 56.13671875 75.12109375 C56.61842529 75.7752124 57.10013184 76.42933105 57.59643555 77.10327148 C58.9933603 79.06663083 58.9933603 79.06663083 60.80395508 80.92993164 C62 83 62 83 61.35717773 85.43896484 C60.90930908 86.28410645 60.46144043 87.12924805 60 88 C59.3659021 89.21163818 59.3659021 89.21163818 58.71899414 90.44775391 C57.17183363 93.17642554 55.62177222 95.90322637 54.0625 98.625 C53.52431641 99.57890625 52.98613281 100.5328125 52.43164062 101.515625 C51.90892578 102.43085938 51.38621094 103.34609375 50.84765625 104.2890625 C50.37336182 105.12131348 49.89906738 105.95356445 49.41040039 106.81103516 C48.10246034 108.84097985 46.77764782 110.37894276 45 112 C34.54366739 87.12081224 24.35744296 62.13850243 14.27416992 37.10601807 C11.98298618 31.42272913 9.67570137 25.74641059 7.34765625 20.078125 C7.08018585 19.42610611 6.81271545 18.77408722 6.53713989 18.10231018 C5.34390538 15.19455045 4.14715583 12.28833131 2.94433594 9.38452148 C2.54633789 8.41587158 2.14833984 7.44722168 1.73828125 6.44921875 C1.39837158 5.62768311 1.05846191 4.80614746 0.70825195 3.9597168 C0 2 0 2 0 0 Z " fill="#080300" transform="translate(126,174)"/>
<path d="M0 0 C4.06247582 3.27254997 6.98398274 6.64002573 7.625 11.875 C7.13262967 17.04488849 4.9954184 20.48846602 2.25 24.8125 C2.91386719 24.77769531 3.57773437 24.74289062 4.26171875 24.70703125 C10.73127302 24.50869455 14.15345422 25.03628655 19.0625 29.4375 C20.93849412 33.18948824 20.87717534 36.7073523 20.25 40.8125 C18.3444234 44.92854547 16.88580496 46.4526104 12.9375 48.6875 C7.54787743 50.33179163 4.08430836 50.76492934 -1 48.125 C-4.97058723 44.7860971 -6.55763254 42.57586837 -7.125 37.375 C-6.72250653 33.551312 -5.67964999 31.10898541 -3.75 27.8125 C-4.34167969 27.77511719 -4.93335938 27.73773438 -5.54296875 27.69921875 C-14.1723487 26.98127686 -14.1723487 26.98127686 -17.75 23.8125 C-21.37139518 18.64248188 -22.65566226 14.05150667 -21.75 7.8125 C-16.72382804 -0.02241512 -8.92039011 -3.85198664 0 0 Z " fill="#E85E00" transform="translate(286.75,238.1875)"/>
<path d="M0 0 C4.97015055 2.77181473 7.68947742 6.35067098 9.25 11.8125 C9.92045932 17.73489065 8.50042562 21.94689374 5.25 26.8125 C3.94672608 28.17522985 2.61879394 29.5155965 1.25 30.8125 C2.3328125 31.62654297 2.3328125 31.62654297 3.4375 32.45703125 C4.365625 33.17246094 5.29375 33.88789063 6.25 34.625 C7.178125 35.33269531 8.10625 36.04039062 9.0625 36.76953125 C9.784375 37.44371094 10.50625 38.11789062 11.25 38.8125 C11.25 39.8025 11.25 40.7925 11.25 41.8125 C7.08783725 42.13894414 4.88686538 42.21900982 1.3125 39.9375 C-0.75 37.8125 -0.75 37.8125 -0.75 35.8125 C-3.73650645 34.14336706 -6.31606786 33.44659145 -9.6875 32.9375 C-14.03543313 32.09988347 -16.71639791 31.21381144 -19.75 27.8125 C-23.15157866 22.06500503 -23.64726057 16.41234999 -22.75 9.8125 C-17.96436347 0.06398114 -10.11797138 -3.20402427 0 0 Z " fill="#F16200" transform="translate(131.75,347.1875)"/>
<path d="M0 0 C6.03818366 1.36251222 10.82435858 5.2608727 14.46875 10.16796875 C17.32371629 15.31285592 17.31681534 20.83347797 16.40625 26.54296875 C14.59821596 29.61662661 13.54585536 30.97316607 10.40625 32.54296875 C4.4496428 33.40803619 0.09120474 32.61124589 -4.796875 29.0625 C-9.23122813 25.31257964 -11.28418854 22.88751617 -12.0703125 16.93359375 C-12.58596073 6.81647634 -12.58596073 6.81647634 -9.3203125 2.625 C-5.86309717 -0.01496529 -4.20885949 -0.25954634 0 0 Z " fill="#040100" transform="translate(259.59375,157.45703125)"/>
<path d="M0 0 C3.63 0 7.26 0 11 0 C12.33735614 3.4568268 13.67004741 6.91532602 15 10.375 C15.3815625 11.35984375 15.763125 12.3446875 16.15625 13.359375 C16.5171875 14.30039062 16.878125 15.24140625 17.25 16.2109375 C17.58515625 17.08024902 17.9203125 17.94956055 18.265625 18.84521484 C19 21 19 21 19 23 C19.66 23 20.32 23 21 23 C21.103125 22.18144531 21.20625 21.36289062 21.3125 20.51953125 C22.12394144 16.36550433 23.48046199 12.62611386 25 8.6875 C25.27328125 7.95982422 25.5465625 7.23214844 25.828125 6.48242188 C27.85925752 1.14074248 27.85925752 1.14074248 29 0 C30.85287502 -0.07226502 32.70833878 -0.0838122 34.5625 -0.0625 C35.57441406 -0.05347656 36.58632813 -0.04445313 37.62890625 -0.03515625 C38.41136719 -0.02355469 39.19382812 -0.01195312 40 0 C40 0.99 40 1.98 40 3 C39.01 3 38.02 3 37 3 C37 11.58 37 20.16 37 29 C37.99 29 38.98 29 40 29 C40 29.99 40 30.98 40 32 C36.04 32 32.08 32 28 32 C28 31.01 28 30.02 28 29 C28.66 28.67 29.32 28.34 30 28 C29.67 22.39 29.34 16.78 29 11 C26.36 17.93 23.72 24.86 21 32 C19.35 32 17.7 32 16 32 C13.36 25.4 10.72 18.8 8 12 C7.67 17.61 7.34 23.22 7 29 C7.99 29 8.98 29 10 29 C10 29.99 10 30.98 10 32 C6.7 32 3.4 32 0 32 C0 31.01 0 30.02 0 29 C0.66 28.67 1.32 28.34 2 28 C2.33 20.08 2.66 12.16 3 4 C2.01 4 1.02 4 0 4 C0 2.68 0 1.36 0 0 Z " fill="#F16200" transform="translate(239,347)"/>
<path d="M0 0 C6.93 2.97 13.86 5.94 21 9 C21 9.66 21 10.32 21 11 C20.40832031 11.15855469 19.81664062 11.31710937 19.20703125 11.48046875 C13.96432525 13.02847819 10.37776799 14.46112427 7 19 C6.12010026 22.18150892 6.12010026 22.18150892 6 25 C8.96178773 26.67110042 11.37071192 27.32682752 14.75 27.625 C15.54921875 27.69976562 16.3484375 27.77453125 17.171875 27.8515625 C17.77515625 27.90054687 18.3784375 27.94953125 19 28 C19 28.33 19 28.66 19 29 C17.02 29 15.04 29 13 29 C13 29.99 13 30.98 13 32 C15.64 32.33 18.28 32.66 21 33 C21 33.66 21 34.32 21 35 C12.10109405 34.69154572 3.4570055 33.54934061 -5.3125 32.0625 C-6.86142944 31.80774902 -6.86142944 31.80774902 -8.44165039 31.54785156 C-9.88785767 31.29406738 -9.88785767 31.29406738 -11.36328125 31.03515625 C-12.23251221 30.8844165 -13.10174316 30.73367676 -13.99731445 30.57836914 C-14.65820068 30.38750732 -15.31908691 30.19664551 -16 30 C-16.33 29.34 -16.66 28.68 -17 28 C-15.66064453 25.31030273 -15.66064453 25.31030273 -13.6328125 21.93359375 C-13.27863251 21.33950211 -12.92445251 20.74541046 -12.55953979 20.13331604 C-11.42216374 18.23011886 -10.27356945 16.33395841 -9.125 14.4375 C-8.35736875 13.15471799 -7.59043252 11.87151981 -6.82421875 10.58789062 C-1.20165686 1.20165686 -1.20165686 1.20165686 0 0 Z " fill="#050200" transform="translate(191,260)"/>
<path d="M0 0 C4.63110774 0.75390126 6.98995438 4.47541612 9.64453125 8.13671875 C13.59470079 14.49857074 17.02824832 20.93601945 20.125 27.75 C20.46700439 28.49016357 20.80900879 29.23032715 21.16137695 29.99291992 C23.29506071 34.84595132 24.46132227 39.11942364 24.6875 44.4375 C22.6875 46.4375 22.6875 46.4375 20.125 46.5625 C14.99300157 44.88293688 11.22736616 41.48081379 7.6875 37.4375 C7.6875 36.4475 7.6875 35.4575 7.6875 34.4375 C11.31386257 35.02292176 13.14635414 36.46396543 15.8125 38.9375 C18.53987239 41.49211886 18.53987239 41.49211886 21.6875 43.4375 C18.4674822 34.51882526 15.22597498 25.79150704 10.6875 17.4375 C10.41035156 18.14777344 10.13320313 18.85804688 9.84765625 19.58984375 C9.48542969 20.50894531 9.12320312 21.42804688 8.75 22.375 C8.39035156 23.29152344 8.03070313 24.20804688 7.66015625 25.15234375 C6.6875 27.4375 6.6875 27.4375 5.6875 28.4375 C2.4375 28.875 2.4375 28.875 -1.3125 28.4375 C-4.34951473 26.00172169 -6.08189456 23.12931631 -7.3125 19.4375 C-7.82719009 13.13254634 -7.93319804 7.86854707 -4.3125 2.4375 C-2.3125 0.4375 -2.3125 0.4375 0 0 Z " fill="#EA5F00" transform="translate(347.3125,125.5625)"/>
<path d="M0 0 C0.33 0.33 0.66 0.66 1 1 C0.637938 5.70680597 -0.04297937 9.24685844 -3 13 C-3.99 13 -4.98 13 -6 13 C-5.29378009 9.32765647 -3.69285959 6.31310322 -2 3 C-2.84304688 3.433125 -3.68609375 3.86625 -4.5546875 4.3125 C-5.65039062 4.869375 -6.74609375 5.42625 -7.875 6 C-8.96554687 6.556875 -10.05609375 7.11375 -11.1796875 7.6875 C-14 9 -14 9 -16 9 C-16 9.66 -16 10.32 -16 11 C-15.34 11 -14.68 11 -14 11 C-11.10804554 16.01195295 -11.12042521 21.54590337 -12.53515625 27.1015625 C-13.94069195 30.71140829 -15.43338881 33.36954917 -19 35 C-22.7131969 35 -24.4576065 34.42820539 -27.375 32.125 C-29.81517918 27.43234773 -29.71935338 23.18087485 -29 18 C-26.33911466 11.71063466 -20.59303944 8.53158144 -15 5 C-13.79150391 4.23042969 -13.79150391 4.23042969 -12.55859375 3.4453125 C-8.27908777 0.88195359 -5.14402944 -0.77160442 0 0 Z " fill="#EB5F00" transform="translate(371,214)"/>
<path d="M0 0 C2.75329021 1.79562405 4.52627461 3.05254922 6 6 C6.81523315 12.56195862 5.69351306 16.57515269 2 22 C-7.87061289 22.62231535 -7.87061289 22.62231535 -12.0625 20.3125 C-14.89185478 16.93552816 -15.80561042 14.3329571 -16.4375 10 C-15.84004667 5.90317716 -14.15397804 4.58052748 -11 2 C-7.46552098 -0.47413531 -4.23326086 -0.44560641 0 0 Z " fill="#050200" transform="translate(284,240)"/>
<path d="M0 0 C2.36497439 1.86708505 3.66030715 3.32061431 5 6 C6.036182 19.24954032 6.036182 19.24954032 3.5 23.875 C0.48498901 26.43775935 -1.21611636 26.82037774 -5.09765625 26.53125 C-8.25648141 25.64911402 -9.40435828 23.74450375 -11 21 C-12.05336511 17.83990467 -12.20032888 15.4446864 -12.25 12.125 C-12.28867188 10.58199219 -12.28867188 10.58199219 -12.328125 9.0078125 C-11.95503198 5.58779313 -11.03027507 3.74974147 -9 1 C-5.90826248 -0.54586876 -3.40570448 -0.29359521 0 0 Z " fill="#050200" transform="translate(128,350)"/>
<path d="M0 0 C0.33 6.27 0.66 12.54 1 19 C2.65 19 4.3 19 6 19 C6.33 14.38 6.66 9.76 7 5 C6.01 5 5.02 5 4 5 C4 4.01 4 3.02 4 2 C7.3 1.34 10.6 0.68 14 0 C14 6.6 14 13.2 14 20 C14.99 20 15.98 20 17 20 C17 21.32 17 22.64 17 24 C14.03 24 11.06 24 8 24 C8 23.34 8 22.68 8 22 C7.319375 22.515625 6.63875 23.03125 5.9375 23.5625 C2.10852228 25.43625505 0.06665724 25.12962701 -4 24 C-6.72272653 21.477566 -6.99368215 20.07918374 -7.29296875 16.328125 C-7.27316751 14.96843965 -7.23759202 13.6089066 -7.1875 12.25 C-7.17396484 11.55261719 -7.16042969 10.85523438 -7.14648438 10.13671875 C-7.1112945 8.42414459 -7.05749155 6.71197059 -7 5 C-7.99 5 -8.98 5 -10 5 C-10 4.01 -10 3.02 -10 2 C-3.375 0 -3.375 0 0 0 Z " fill="#E95F00" transform="translate(153,355)"/>
<path d="M0 0 C2.75329021 1.79562405 4.52627461 3.05254922 6 6 C6.07116382 8.37402501 6.08409085 10.75000677 6.0625 13.125 C6.05347656 14.40632813 6.04445313 15.68765625 6.03515625 17.0078125 C6.02355469 17.99523437 6.01195312 18.98265625 6 20 C6.66 20 7.32 20 8 20 C8 21.32 8 22.64 8 24 C6.93072266 23.98259766 6.93072266 23.98259766 5.83984375 23.96484375 C-0.61519236 23.88113766 -0.61519236 23.88113766 -7 24.6875 C-10 25 -10 25 -11.9375 24 C-13.6279784 20.81792301 -13.49557183 18.53094928 -13 15 C-9.51752628 10.98987875 -6.17156444 10.4056129 -1 10 C-1.33 8.35 -1.66 6.7 -2 5 C-3.65 4.67 -5.3 4.34 -7 4 C-7 5.65 -7 7.3 -7 9 C-8.65 9 -10.3 9 -12 9 C-12.3125 6.1875 -12.3125 6.1875 -12 3 C-8.31334931 -0.35150063 -4.83456313 -0.60432039 0 0 Z " fill="#EC6000" transform="translate(296,355)"/>
<path d="M0 0 C6.68598741 2.06516985 11.54033249 8.01064528 15.10546875 13.79296875 C17.31588375 18.32795163 17.46784169 22.0876623 17 27 C15.30425106 31.804622 12.67539935 35.74782592 8 38 C1.8717466 39.28153727 -2.99912381 38.4195267 -8.4375 35.375 C-14.23634874 31.46008785 -17.42195197 26.83820812 -19 20 C-19.5597807 13.98972296 -19.54006278 9.12698748 -16 4 C-11.64597275 -1.17040736 -6.27978542 -0.86867349 0 0 Z M-15 8 C-16.15397696 13.75699122 -16.20933897 20.14698201 -13.890625 25.6171875 C-10.73317523 30.11570465 -7.06068084 32.94141796 -2 35 C2.72613309 35.78091012 5.89088513 35.69319679 10 33.125 C13.74299497 29.14806784 13.45946683 25.47309334 13.40234375 20.1796875 C12.64242635 14.1741267 9.56198379 10.288061 5.13671875 6.3359375 C0.95658773 3.33696575 -2.72471111 2.42916433 -7.82421875 2.3359375 C-11.28106785 3.39099019 -12.80115544 5.17777167 -15 8 Z " fill="#E75E00" transform="translate(263,155)"/>
<path d="M0 0 C0.66 0 1.32 0 2 0 C1.36754482 13.41241147 -0.32001346 26.68496086 -2 40 C-3.98 40.495 -3.98 40.495 -6 41 C-6.49028687 40.16976318 -6.49028687 40.16976318 -6.99047852 39.32275391 C-15.79057737 23.29277136 -15.79057737 23.29277136 -27 9 C-29.58354218 8.83312552 -29.58354218 8.83312552 -32 9 C-33.60717645 12.21435291 -33.76258493 15.53745222 -33 19 C-30.11490087 21.42422186 -30.11490087 21.42422186 -27 23 C-27 23.66 -27 24.32 -27 25 C-29.1875 25.3125 -29.1875 25.3125 -32 25 C-35.49492695 21.981654 -37.78416707 19.89932977 -38.3125 15.25 C-37.90069634 10.96724191 -36.04201213 8.04201213 -33 5 C-28.96470608 4.53438916 -26.80769203 4.39423098 -23.5 6.875 C-16.68415957 14.8231136 -11.39240582 24.06401321 -6 33 C-4.21590126 23.28260885 -2.60456034 13.59246883 -1.4296875 3.78125 C-1 1 -1 1 0 0 Z " fill="#E85E00" transform="translate(185,156)"/>
<path d="M0 0 C2.5 1.625 2.5 1.625 4 4 C4.33 6.31 4.66 8.62 5 11 C0.05 11 -4.9 11 -10 11 C-8.59628479 16.7018576 -8.59628479 16.7018576 -6 19 C-3.10839021 18.7269226 -3.10839021 18.7269226 0 18 C0.94875 17.814375 1.8975 17.62875 2.875 17.4375 C3.926875 17.2209375 3.926875 17.2209375 5 17 C3.98929671 19.6645814 3.0600516 20.95195872 0.8125 22.75 C-2.74078543 24.32923797 -5.14312892 24.41323619 -9 24 C-12.45893025 22.58498308 -13.7512539 21.37740787 -15.8125 18.25 C-17.19317311 14.47131569 -17.49945097 11.99560775 -17 8 C-12.69821328 0.01096751 -8.76602616 -2.33653271 0 0 Z " fill="#EE6000" transform="translate(189,356)"/>
<path d="M0 0 C5.57894737 3.15789474 5.57894737 3.15789474 7 6 C7 7.98 7 9.96 7 12 C2.38 12 -2.24 12 -7 12 C-6.34 14.31 -5.68 16.62 -5 19 C-2.14221967 19.68493373 -2.14221967 19.68493373 1 20 C1.99 19.34 2.98 18.68 4 18 C4.99 18 5.98 18 7 18 C6.875 19.8125 6.875 19.8125 6 22 C1.6677742 24.88815053 -1.84667545 25.73618922 -7 25 C-10.47123247 22.96862853 -12.70220109 20.89339674 -14 17 C-14.55165147 12.25218 -14.44453763 8.87319891 -12.25 4.5625 C-8.51287373 0.30632841 -5.68057472 -0.68166897 0 0 Z " fill="#EE6100" transform="translate(362,355)"/>
<path d="M0 0 C4.16516496 2.22142131 6.03848442 5.05353202 7.49609375 9.54296875 C9.43902148 19.01662412 7.66985068 27.87940946 5 37 C5.62044189 36.63648438 6.24088379 36.27296875 6.88012695 35.8984375 C9.68705107 34.25889744 12.4996546 32.62935859 15.3125 31 C16.28896484 30.42765625 17.26542969 29.8553125 18.27148438 29.265625 C19.67817383 28.45351562 19.67817383 28.45351562 21.11328125 27.625 C22.40939331 26.87089844 22.40939331 26.87089844 23.73168945 26.1015625 C26 25 26 25 29 25 C29 25.99 29 26.98 29 28 C25.29306685 30.1066405 21.58420919 32.20986997 17.875 34.3125 C16.82828125 34.90740234 15.7815625 35.50230469 14.703125 36.11523438 C13.68476563 36.69208984 12.66640625 37.26894531 11.6171875 37.86328125 C10.68503418 38.39219971 9.75288086 38.92111816 8.79248047 39.46606445 C5.89751684 41.05629496 2.96314429 42.54136833 0 44 C-1.44025326 39.38601499 -0.39970129 36.81392258 1.4375 32.4375 C5.03160576 22.90313611 4.97484564 14.66824832 2 5 C-2.69537275 3.9668134 -5.80610727 3.29341043 -10.0625 5.8125 C-12.75387044 10.24023847 -12.44150715 13.94719594 -12 19 C-12.99 19 -13.98 19 -15 19 C-16.75845645 15.48308711 -16.68065337 11.82789463 -16 8 C-12.0435227 1.41398702 -7.74769823 -1.02805996 0 0 Z " fill="#EB5F00" transform="translate(227,173)"/>
<path d="M0 0 C3.72078891 0.08605906 6.38276202 0.44926654 9.5625 2.4375 C11.8645949 5.66043286 12.03760654 8.55746324 11.5625 12.4375 C9.76256226 15.13740662 8.478727 16.9793865 5.5625 18.4375 C1.52572011 19.00193471 -2.64620033 19.52313617 -6.2421875 17.34375 C-8.85572062 14.56779391 -9.4375 12.64421364 -9.4375 8.875 C-6.89843693 0.14697069 -6.89843693 0.14697069 0 0 Z " fill="#040100" transform="translate(292.4375,265.5625)"/>
<path d="M0 0 C4.875 0.875 4.875 0.875 6 2 C6.55913813 7.70320894 5.5058565 10.50812136 2 15 C2.99 15.33 3.98 15.66 5 16 C6.42662219 18.85324437 6.31033868 20.83454549 6 24 C4.20006226 26.69990662 2.916227 28.5418865 0 30 C-3 30.25 -3 30.25 -6 30 C-8.47342266 26.28986601 -8.38503486 24.38939738 -8 20 C-7.484375 19.38125 -6.96875 18.7625 -6.4375 18.125 C-4.76245059 16.14722553 -4.76245059 16.14722553 -5.234375 14.00390625 C-5.45867187 12.85728516 -5.45867187 12.85728516 -5.6875 11.6875 C-6.16925023 8.71834551 -6.28543537 7.48577199 -4.7421875 4.859375 C-3.23412463 3.13387051 -1.70147264 1.53379128 0 0 Z " fill="#EC6000" transform="translate(181,86)"/>
<path d="M0 0 C-0.65902299 3.57040303 -2.16229158 6.17732255 -4.0625 9.25 C-4.61035156 10.14203125 -5.15820312 11.0340625 -5.72265625 11.953125 C-6.14417969 12.62859375 -6.56570313 13.3040625 -7 14 C-5.83404297 14.44472656 -5.83404297 14.44472656 -4.64453125 14.8984375 C-2.05249741 15.97813254 -0.16623225 17.23492187 2 19 C1.67 19.99 1.34 20.98 1 22 C-2.59943736 20.66306612 -5.73125918 19.00519395 -9 17 C-9.93972656 18.69769531 -9.93972656 18.69769531 -10.8984375 20.4296875 C-11.72378222 21.91155643 -12.54931272 23.39332191 -13.375 24.875 C-13.99375 25.99455078 -13.99375 25.99455078 -14.625 27.13671875 C-15.02460938 27.85214844 -15.42421875 28.56757813 -15.8359375 29.3046875 C-16.38580322 30.2944458 -16.38580322 30.2944458 -16.94677734 31.30419922 C-18 33 -18 33 -20 35 C-20.99 35 -21.98 35 -23 35 C-21.36047417 30.3606824 -18.93128948 26.36144142 -16.375 22.1875 C-15.95476562 21.49462891 -15.53453125 20.80175781 -15.1015625 20.08789062 C-14.0710533 18.38989252 -13.03598319 16.69466386 -12 15 C-14.71081704 12.78793635 -17.3363221 10.7905919 -20.3125 8.9375 C-21.199375 8.298125 -22.08625 7.65875 -23 7 C-23 6.01 -23 5.02 -23 4 C-20.93771534 3.51990738 -18.87516299 3.04096456 -16.8125 2.5625 C-15.08966797 2.16224609 -15.08966797 2.16224609 -13.33203125 1.75390625 C-8.77304308 0.72238841 -4.68747209 -0.13392777 0 0 Z " fill="#EB5F00" transform="translate(316,105)"/>
<path d="M0 0 C2.5625 1.5625 2.5625 1.5625 3.5625 2.5625 C3.9445727 6.00115434 4.00792391 7.89436413 2.0625 10.8125 C-3.08918655 14.41868059 -9.24743406 15.14646848 -15.4375 14.5625 C-18.375 13.0625 -18.375 13.0625 -20.4375 11.5625 C-19.98463369 6.69418719 -18.85428531 4.07690774 -15.4375 0.5625 C-10.79591388 -2.91868959 -5.01336556 -2.09649833 0 0 Z " fill="#E95F00" transform="translate(216.4375,273.4375)"/>
<path d="M0 0 C0 2.97 0 5.94 0 9 C-0.99 9 -1.98 9 -3 9 C-3.433125 8.360625 -3.86625 7.72125 -4.3125 7.0625 C-5.91325516 4.67933367 -5.91325516 4.67933367 -9.1875 4.25 C-10.115625 4.1675 -11.04375 4.085 -12 4 C-12 5.32 -12 6.64 -12 8 C-11.39671875 8.18175781 -10.7934375 8.36351562 -10.171875 8.55078125 C-1.14368932 11.39029126 -1.14368932 11.39029126 1 14 C1.5625 17.4375 1.5625 17.4375 1 21 C-1.71065181 24.20349759 -3.25405429 24.93218675 -7.4375 25.3125 C-10.67345006 25.02864473 -13.81256942 24.62193767 -17 24 C-17 21.69 -17 19.38 -17 17 C-16.01 17 -15.02 17 -14 17 C-13.566875 17.495 -13.13375 17.99 -12.6875 18.5 C-10.97790291 20.3314563 -10.97790291 20.3314563 -7.8125 20.1875 C-6.884375 20.125625 -5.95625 20.06375 -5 20 C-5 19.34 -5 18.68 -5 18 C-6.03060547 17.51080078 -6.03060547 17.51080078 -7.08203125 17.01171875 C-7.98308594 16.57472656 -8.88414062 16.13773437 -9.8125 15.6875 C-10.70582031 15.25824219 -11.59914062 14.82898438 -12.51953125 14.38671875 C-14.81605302 13.1028365 -16.34408127 12.02449419 -18 10 C-18.5625 7.625 -18.5625 7.625 -18 5 C-13.01267539 -1.23415576 -7.54160009 -0.54914564 0 0 Z " fill="#EB6000" transform="translate(215,355)"/>
<path d="M0 0 C0 2.31 0 4.62 0 7 C-0.99 7 -1.98 7 -3 7 C-3.66 6.01 -4.32 5.02 -5 4 C-8.08365871 3.7497843 -8.08365871 3.7497843 -11 4 C-10.34584887 7.10155668 -10.34584887 7.10155668 -8.0390625 8.0625 C-7.24242187 8.371875 -6.44578125 8.68125 -5.625 9 C-2.45918017 10.237454 -0.08949556 11.24995423 2 14 C2 17.5 2 17.5 1 21 C-1.66000404 23.35600358 -3.34730324 23.94324376 -6.875 24.25 C-10.27987172 23.97761026 -13.62752717 23.53959565 -17 23 C-17 20.36 -17 17.72 -17 15 C-16.01 15 -15.02 15 -14 15 C-13.5875 15.639375 -13.175 16.27875 -12.75 16.9375 C-11.03600693 19.38836869 -11.03600693 19.38836869 -7.3125 19.75 C-6.219375 19.8325 -5.12625 19.915 -4 20 C-4.68273194 16.86189693 -4.68273194 16.86189693 -7.21484375 15.68359375 C-8.11332031 15.27238281 -9.01179688 14.86117188 -9.9375 14.4375 C-14.81550802 12.18449198 -14.81550802 12.18449198 -17 10 C-17.4375 6.625 -17.4375 6.625 -17 3 C-12.0664936 -2.65902205 -6.7589764 -1.28742408 0 0 Z " fill="#EC6000" transform="translate(324,356)"/>
<path d="M0 0 C-0.125 1.75 -0.125 1.75 -1 4 C-4.0625 6.25 -4.0625 6.25 -7 8 C-0.54049539 11.00442075 6.17826451 12.97912498 13 15 C13 15.99 13 16.98 13 18 C7.15963717 17.35190812 1.9920456 15.73462273 -3.48242188 13.640625 C-7.73193662 12.11762692 -10.64621755 11.76228185 -15 13 C-17.0180755 14.30581356 -19.02053408 15.63636792 -21 17 C-21.99 17 -22.98 17 -24 17 C-25.0076952 15.2335343 -26.00591714 13.46166177 -27 11.6875 C-27.556875 10.70136719 -28.11375 9.71523437 -28.6875 8.69921875 C-30 6 -30 6 -30 3 C-21.7590525 3.68225709 -21.7590525 3.68225709 -18.3125 5.125 C-15.05760335 6.35658252 -13.33846966 5.98190284 -10 5 C-7.84053783 3.77294112 -5.78414802 2.46086095 -3.734375 1.05859375 C-2 0 -2 0 0 0 Z " fill="#EB5F00" transform="translate(241,63)"/>
<path d="M0 0 C1.32 0 2.64 0 4 0 C4 1.98 4 3.96 4 6 C5.98 6 7.96 6 10 6 C10 7.32 10 8.64 10 10 C8.02 10 6.04 10 4 10 C4 14.95 4 19.9 4 25 C6.31 24.34 8.62 23.68 11 23 C11 27 11 27 9.375 28.75 C6.33324476 30.35092381 4.3942779 30.43331207 1 30 C-1.55949546 28.14657225 -1.97918798 27.06243607 -3 24 C-3.06970052 21.60509014 -3.08448003 19.20832309 -3.0625 16.8125 C-3.05347656 15.54019531 -3.04445313 14.26789063 -3.03515625 12.95703125 C-3.02355469 11.98121094 -3.01195312 11.00539063 -3 10 C-3.99 10 -4.98 10 -6 10 C-6 8.68 -6 7.36 -6 6 C-5.38125 5.7525 -4.7625 5.505 -4.125 5.25 C-1.64931313 3.79371361 -1.04874998 2.62187494 0 0 Z " fill="#EC6000" transform="translate(334,350)"/>
<path d="M0 0 C0.99 0 1.98 0 3 0 C3 1.98 3 3.96 3 6 C4.98 6 6.96 6 9 6 C9 7.32 9 8.64 9 10 C7.02 10 5.04 10 3 10 C3.33 14.62 3.66 19.24 4 24 C7.465 23.505 7.465 23.505 11 23 C11 24.32 11 25.64 11 27 C7.96669733 29.66562962 6.37271977 30.01263457 2.3125 29.875 C-1 29 -1 29 -3 26 C-3.14245897 23.23344676 -3.18769445 20.57346694 -3.125 17.8125 C-3.11597656 17.06291016 -3.10695312 16.31332031 -3.09765625 15.54101562 C-3.07412578 13.69387346 -3.03825561 11.84689588 -3 10 C-3.99 10 -4.98 10 -6 10 C-6 6 -6 6 -3.5625 3.3125 C-2.716875 2.549375 -1.87125 1.78625 -1 1 C-0.67 0.67 -0.34 0.34 0 0 Z " fill="#F36300" transform="translate(225,350)"/>
<path d="M0 0 C1.11375 0.3403125 1.11375 0.3403125 2.25 0.6875 C2.63218767 2.34364657 2.96395102 4.01207024 3.25 5.6875 C2.25 6.6875 2.25 6.6875 -0.3125 6.75 C-1.5190625 6.7190625 -1.5190625 6.7190625 -2.75 6.6875 C-2.75 6.0275 -2.75 5.3675 -2.75 4.6875 C-4.84051819 5.74163634 -4.84051819 5.74163634 -6.75 7.6875 C-7.45124774 10.87346662 -7.45124774 10.87346662 -7.5 14.375 C-7.55671875 15.55449219 -7.6134375 16.73398437 -7.671875 17.94921875 C-7.69765625 18.85285156 -7.7234375 19.75648438 -7.75 20.6875 C-6.76 20.6875 -5.77 20.6875 -4.75 20.6875 C-4.75 21.6775 -4.75 22.6675 -4.75 23.6875 C-8.71 23.6875 -12.67 23.6875 -16.75 23.6875 C-16.75 22.6975 -16.75 21.7075 -16.75 20.6875 C-16.09 20.3575 -15.43 20.0275 -14.75 19.6875 C-14.43758629 17.13808627 -14.23696579 14.68388487 -14.125 12.125 C-14.08632813 11.41408203 -14.04765625 10.70316406 -14.0078125 9.97070312 C-13.91328217 8.21007575 -13.83054183 6.44882272 -13.75 4.6875 C-14.74 4.6875 -15.73 4.6875 -16.75 4.6875 C-16.75 3.6975 -16.75 2.7075 -16.75 1.6875 C-12.295 1.1925 -12.295 1.1925 -7.75 0.6875 C-7.42 1.3475 -7.09 2.0075 -6.75 2.6875 C-6.193125 2.171875 -5.63625 1.65625 -5.0625 1.125 C-2.75 -0.3125 -2.75 -0.3125 0 0 Z " fill="#FB6600" transform="translate(389.75,355.3125)"/>
<path d="M0 0 C3.25666272 0.56149357 4.95623323 1.37229986 7 4 C8.66572225 9.37626215 8.99177004 14.97513618 6.5 20.0625 C6.005 20.701875 5.51 21.34125 5 22 C2.6875 21.9375 2.6875 21.9375 0 21 C-3.02111519 15.89535709 -3.55917995 11.87138948 -3 6 C-1.5 2.5 -1.5 2.5 0 0 Z " fill="#0D0500" transform="translate(346,129)"/>
<path d="M0 0 C5.00018664 0.86688674 6.85537577 3.87016576 9.875 7.6875 C10.39835938 8.30044922 10.92171875 8.91339844 11.4609375 9.54492188 C12.88376753 11.3291356 14.0601468 12.91922199 15 15 C14.3828125 18.33203125 14.3828125 18.33203125 13 21 C11.69540086 23.60919828 11.8673406 25.58942615 11.875 28.5 C11.87242187 29.4796875 11.86984375 30.459375 11.8671875 31.46875 C11.83059947 33.99431054 11.83059947 33.99431054 13 36 C13.66 33.69 14.32 31.38 15 29 C15.99 29.33 16.98 29.66 18 30 C17.85950482 31.47968324 17.71245174 32.95874516 17.5625 34.4375 C17.48128906 35.26121094 17.40007812 36.08492188 17.31640625 36.93359375 C17 39 17 39 16 40 C13.625 40.375 13.625 40.375 11 40 C8.02042815 36.17114402 7.6155015 33.21709292 7.6875 28.4375 C7.69136719 27.32246094 7.69523438 26.20742187 7.69921875 25.05859375 C8 22 8 22 9.08203125 19.84765625 C10.15515083 18.06443848 10.15515083 18.06443848 9.91015625 16.1328125 C8.58039675 13.01672372 6.52887745 10.50763746 4.4375 7.875 C0 2.2591047 0 2.2591047 0 0 Z " fill="#E45D00" transform="translate(152,220)"/>
<path d="M0 0 C-1.54469063 4.41698871 -3.88756059 8.14564613 -6.46484375 12.015625 C-7.11580772 13.0002774 -7.11580772 13.0002774 -7.77992249 14.00482178 C-8.69456129 15.38468384 -9.61163733 16.76293315 -10.53100586 18.13964844 C-11.9382438 20.25111602 -13.33167884 22.37126244 -14.72460938 24.4921875 C-15.61636112 25.83388295 -16.5089118 27.17504781 -17.40234375 28.515625 C-17.81806137 29.15099182 -18.23377899 29.78635864 -18.66209412 30.440979 C-21.65649648 34.88549883 -21.65649648 34.88549883 -25 36 C-24.49531323 31.16418313 -22.1489915 27.82270425 -19.4375 23.9375 C-18.532439 22.61205638 -17.6274928 21.28653436 -16.72265625 19.9609375 C-16.26777832 19.30061523 -15.81290039 18.64029297 -15.34423828 17.95996094 C-13.32388592 15.01419473 -11.35068942 12.03840427 -9.375 9.0625 C-8.25 7.375 -7.125 5.6875 -6 4 C-8.97 4.66 -11.94 5.32 -15 6 C-15 4.68 -15 3.36 -15 2 C-13.06524329 1.46906676 -11.12706845 0.95057683 -9.1875 0.4375 C-8.10855469 0.14746094 -7.02960938 -0.14257812 -5.91796875 -0.44140625 C-3 -1 -3 -1 0 0 Z " fill="#E65D00" transform="translate(293,90)"/>
<path d="M0 0 C1.72305453 3.44610906 1.379435 7.22462175 1 11 C-0.5 14.5625 -0.5 14.5625 -2 17 C-4.3431213 16.74438677 -6.67843403 16.40729228 -9 16 C-10.72194097 12.55611807 -10.37796284 8.77311176 -10 5 C-7.53995379 -0.36737354 -5.71371164 -1.61155969 0 0 Z " fill="#060200" transform="translate(355,228)"/>
<path d="M0 0 C1.12792969 0.37511719 2.25585938 0.75023437 3.41796875 1.13671875 C12.16340095 3.99858669 20.92391333 6.6072213 29.875 8.75 C31.10126099 9.04716919 31.10126099 9.04716919 32.35229492 9.3503418 C44.53076556 12.18854984 56.88402524 13.47941126 69.3125 14.625 C70.74677774 14.76006724 72.18102279 14.8954821 73.61523438 15.03125 C77.07645693 15.35815756 80.53809229 15.68041958 84 16 C84 16.33 84 16.66 84 17 C55.06644279 18.29714578 25.9090713 12.5397749 -1 2 C-0.67 1.34 -0.34 0.68 0 0 Z " fill="#D7671B" transform="translate(164,483)"/>
<path d="M0 0 C0.33 0 0.66 0 1 0 C1.17185198 1.95788511 1.33715571 3.91634511 1.5 5.875 C1.5928125 6.96554688 1.685625 8.05609375 1.78125 9.1796875 C3.13032763 32.74036464 -0.03627554 60.10403637 -9 82 C-9.99 82.495 -9.99 82.495 -11 83 C-10.40781014 77.18337964 -9.22947376 71.86062383 -7.625 66.25 C-1.7556253 44.48413832 -1.02003665 22.40784279 0 0 Z " fill="#CB5D12" transform="translate(498,244)"/>
<path d="M0 0 C0.99 0 1.98 0 3 0 C2.29574 4.22205622 0.9806657 8.04073059 -0.50390625 12.05078125 C-0.7466478 12.70958786 -0.98938934 13.36839447 -1.23948669 14.04716492 C-2.01036472 16.13690759 -2.78634796 18.22471117 -3.5625 20.3125 C-4.08822969 21.73490077 -4.61362391 23.15742557 -5.13867188 24.58007812 C-6.42190157 28.05482955 -7.70971465 31.52786146 -9 35 C-9.99 34.67 -10.98 34.34 -12 34 C-9.88530212 26.47039391 -7.50667619 19.01335237 -4 12 C-4.99 12 -5.98 12 -7 12 C-6.38024215 8.644238 -5.15537152 6.47736472 -3.125 3.75 C-2.61195313 3.04359375 -2.09890625 2.3371875 -1.5703125 1.609375 C-1.05210937 1.07828125 -0.53390625 0.5471875 0 0 Z " fill="#EF6100" transform="translate(171,91)"/>
<path d="M0 0 C2.97 0.33 5.94 0.66 9 1 C9 2.32 9 3.64 9 5 C5.09077223 7.00410742 1.17636137 8.9975832 -2.74316406 10.98144531 C-4.07536328 11.65759314 -5.40611139 12.33660806 -6.73535156 13.01855469 C-8.64793233 13.99914542 -10.56552067 14.9692552 -12.484375 15.9375 C-13.63647461 16.52402344 -14.78857422 17.11054688 -15.97558594 17.71484375 C-19 19 -19 19 -23 19 C-22 16 -22 16 -19.89868164 14.6496582 C-18.99496826 14.20452881 -18.09125488 13.75939941 -17.16015625 13.30078125 C-16.17982422 12.81416016 -15.19949219 12.32753906 -14.18945312 11.82617188 C-13.15755859 11.32666016 -12.12566406 10.82714844 -11.0625 10.3125 C-10.03447266 9.80138672 -9.00644531 9.29027344 -7.94726562 8.76367188 C-0.29429865 5 -0.29429865 5 2 5 C2 4.34 2 3.68 2 3 C1.34 3 0.68 3 0 3 C0 2.01 0 1.02 0 0 Z " fill="#EA5F00" transform="translate(363,203)"/>
<path d="M0 0 C2.0625 1.25 2.0625 1.25 3 3 C2.78515625 5 2.78515625 5 2 7 C-2.56938427 9.98681703 -7.70349445 10.3310316 -13 10 C-13.33 8.35 -13.66 6.7 -14 5 C-9.26360557 0.26360557 -6.71579956 -0.8807606 0 0 Z " fill="#0B0400" transform="translate(214,275)"/>
<path d="M0 0 C11.55 0 23.1 0 35 0 C35 0.99 35 1.98 35 3 C27.74 3 20.48 3 13 3 C13 3.66 13 4.32 13 5 C8.71 4.34 4.42 3.68 0 3 C0 2.01 0 1.02 0 0 Z " fill="#EE6000" transform="translate(204,289)"/>
<path d="M0 0 C0.33 0 0.66 0 1 0 C1.01458252 0.94504395 1.02916504 1.89008789 1.04418945 2.86376953 C1.34357617 26.73629768 1.34357617 26.73629768 4.0715332 50.42431641 C4.82829335 54.92291108 5.09260328 58.47662242 4 63 C3.67 63 3.34 63 3 63 C2.51504915 60.08419491 2.03698198 57.16751246 1.5625 54.25 C1.42779297 53.44433594 1.29308594 52.63867188 1.15429688 51.80859375 C-0.62992417 40.75512677 -1.16388832 29.81187307 -1.125 18.625 C-1.12886719 17.48933594 -1.13273438 16.35367188 -1.13671875 15.18359375 C-1.13542969 14.08402344 -1.13414063 12.98445312 -1.1328125 11.8515625 C-1.13168457 10.87010254 -1.13055664 9.88864258 -1.12939453 8.87744141 C-0.99330792 5.85118337 -0.55539763 2.97554142 0 0 Z " fill="#C85A0F" transform="translate(1,236)"/>
<path d="M0 0 C0.66 0.33 1.32 0.66 2 1 C2 6.28 2 11.56 2 17 C2.66 17 3.32 17 4 17 C4.125 23.625 4.125 23.625 3 27 C2.01 27 1.02 27 0 27 C-1.00665982 18.35351117 -1.38615987 9.69995465 -1 1 C-0.67 0.67 -0.34 0.34 0 0 Z " fill="#F16200" transform="translate(172,246)"/>
<path d="M0 0 C2.125 0.375 2.125 0.375 4 1 C4.75 3.25 4.75 3.25 5 6 C3.3125 8.375 3.3125 8.375 1 10 C-1.25 9.75 -1.25 9.75 -3 9 C-2.25 2.25 -2.25 2.25 0 0 Z " fill="#0D0500" transform="translate(179,103)"/>
<path d="M0 0 C1 3 1 3 -0.07421875 5.4453125 C-0.60660156 6.32960937 -1.13898438 7.21390625 -1.6875 8.125 C-2.20699219 9.01445312 -2.72648437 9.90390625 -3.26171875 10.8203125 C-5 13 -5 13 -7.20703125 13.8046875 C-7.79871094 13.86914062 -8.39039063 13.93359375 -9 14 C-7.03142354 8.58641473 -4.89000378 3.26000252 0 0 Z " fill="#EB6000" transform="translate(302,126)"/>
<path d="M0 0 C-1.32 2.31 -2.64 4.62 -4 7 C-7.37503669 5.8141763 -9.64722731 4.72426311 -12 2 C-7.8803623 0.70756464 -4.33168317 -0.26252625 0 0 Z " fill="#120700" transform="translate(311,109)"/>
<path d="M0 0 C1.66611905 -0.042721 3.33382885 -0.04063832 5 0 C6 1 6 1 6.0625 3.5625 C6.041875 4.366875 6.02125 5.17125 6 6 C3.36 6.66 0.72 7.32 -2 8 C-2 7.34 -2 6.68 -2 6 C-2.66 5.67 -3.32 5.34 -4 5 C-2.68 5 -1.36 5 0 5 C0 3.35 0 1.7 0 0 Z " fill="#0D0500" transform="translate(289,359)"/>
<path d="M0 0 C5.45454545 -0.36363636 5.45454545 -0.36363636 7.875 1.25 C9 3 9 3 9 7 C6.03 6.01 3.06 5.02 0 4 C0 2.68 0 1.36 0 0 Z " fill="#100600" transform="translate(203,359)"/>
<path d="M0 0 C1.65 0.33 3.3 0.66 5 1 C5.38218767 2.65614657 5.71395102 4.32457024 6 6 C5 7 5 7 2.4375 7.0625 C1.2309375 7.0315625 1.2309375 7.0315625 0 7 C0 6.34 0 5.68 0 5 C-0.66 5 -1.32 5 -2 5 C-1.34 3.35 -0.68 1.7 0 0 Z " fill="#E25C00" transform="translate(387,355)"/>
<path d="M0 0 C2.375 -0.125 2.375 -0.125 5 0 C7 2 7 2 7 5 C4.03 5 1.06 5 -2 5 C-1.34 3.35 -0.68 1.7 0 0 Z " fill="#240F00" transform="translate(181,359)"/>
<path d="M0 0 C1.69867188 0.14777936 3.40177489 0.24747066 5.10546875 0.31640625 C6.57983398 0.37924805 6.57983398 0.37924805 8.08398438 0.44335938 C9.62022461 0.50233398 9.62022461 0.50233398 11.1875 0.5625 C12.74114258 0.62727539 12.74114258 0.62727539 14.32617188 0.69335938 C16.8839819 0.79944366 19.44188845 0.90150146 22 1 C22 1.33 22 1.66 22 2 C18.04903022 2.04939662 14.0981797 2.08571755 10.14697266 2.10986328 C8.1408864 2.12488107 6.13488676 2.15028981 4.12890625 2.17578125 C2.87207031 2.18222656 1.61523438 2.18867188 0.3203125 2.1953125 C-0.84226074 2.20578613 -2.00483398 2.21625977 -3.20263672 2.22705078 C-6 2 -6 2 -8 0 C-4.71303767 -0.79953138 -3.28976808 -1.09658936 0 0 Z " fill="#411A00" transform="translate(216,287)"/>
<path d="M0 0 C1.2065625 0.0309375 1.2065625 0.0309375 2.4375 0.0625 C2.7675 1.7125 3.0975 3.3625 3.4375 5.0625 C0.7975 5.0625 -1.8425 5.0625 -4.5625 5.0625 C-3.43829114 0.08386076 -3.43829114 0.08386076 0 0 Z " fill="#1A0A00" transform="translate(359.5625,358.9375)"/>
<path d="M0 0 C0.33 0.99 0.66 1.98 1 3 C-0.55287156 5.31749843 -2.11294747 7.41544135 -3.875 9.5625 C-7.24676476 13.57585012 -7.24676476 13.57585012 -10 18 C-10.66 18 -11.32 18 -12 18 C-10.46906512 13.32800909 -7.89242605 9.97829995 -4.875 6.1875 C-4.40707031 5.59001953 -3.93914063 4.99253906 -3.45703125 4.37695312 C-2.30994435 2.91383208 -1.15568766 1.45633703 0 0 Z " fill="#D8671A" transform="translate(56,91)"/>
<path d="M0 0 C-0.49230769 6.52307692 -0.49230769 6.52307692 -3.0625 8.9375 C-3.701875 9.288125 -4.34125 9.63875 -5 10 C-5.3669579 3.51707705 -5.3669579 3.51707705 -3.625 1.0625 C-2 0 -2 0 0 0 Z " fill="#120700" transform="translate(184,89)"/>
<path d="M0 0 C1.32 0 2.64 0 4 0 C4 1.65 4 3.3 4 5 C2.35 5.33 0.7 5.66 -1 6 C-1.625 4.125 -1.625 4.125 -2 2 C-1.34 1.34 -0.68 0.68 0 0 Z " fill="#090300" transform="translate(291,369)"/>
<path d="M0 0 C0.33 0.99 0.66 1.98 1 3 C-0.75 5.6875 -0.75 5.6875 -3 8 C-3.99 8 -4.98 8 -6 8 C-4.73058503 4.08597051 -3.48832306 2.20927127 0 0 Z " fill="#120700" transform="translate(166,95)"/>
<path d="M0 0 C2.64 0.66 5.28 1.32 8 2 C6.68 3.32 5.36 4.64 4 6 C1.7522025 3.94766315 0.9977758 2.99332739 0 0 Z " fill="#130700" transform="translate(216,70)"/>
<path d="M0 0 C0 0.99 0 1.98 0 3 C-5.17578125 6.22265625 -5.17578125 6.22265625 -7 7 C-7.99 6.67 -8.98 6.34 -10 6 C-6.7 4.02 -3.4 2.04 0 0 Z " fill="#D4671D" transform="translate(123,34)"/>
<path d="M0 0 C0.66 0.33 1.32 0.66 2 1 C-0.31 3.31 -2.62 5.62 -5 8 C-5.66 7.34 -6.32 6.68 -7 6 C-4.69 4.02 -2.38 2.04 0 0 Z " fill="#D76517" transform="translate(421,430)"/>
</svg>
